<?xml version="1.0" standalone="no"?>
<!DOCTYPE svg PUBLIC "-//W3C//DTD SVG 20010904//EN"
 "http://www.w3.org/TR/2001/REC-SVG-20010904/DTD/svg10.dtd">
<svg version="1.0" xmlns="http://www.w3.org/2000/svg"
 width="1200.000000pt" height="444.000000pt" viewBox="0 0 1200.000000 444.000000"
 preserveAspectRatio="xMidYMid meet">

<g transform="translate(0.000000,444.000000) scale(0.100000,-0.100000)"
fill="#000000" stroke="none">
<path d="M675 4426 c-161 -26 -297 -84 -430 -183 -73 -54 -215 -196 -215 -215
0 -4 56 -8 124 -8 l124 0 12 31 c7 17 34 52 59 78 139 141 341 207 555 182
185 -22 324 -93 489 -250 186 -177 314 -405 382 -677 28 -110 56 -314 44 -314
-4 0 -152 75 -328 166 -177 91 -327 164 -335 161 -20 -8 -291 -214 -395 -300
-245 -203 -495 -445 -594 -575 -63 -82 -105 -164 -139 -273 -19 -61 -23 -95
-22 -194 0 -104 4 -131 27 -199 63 -180 205 -329 395 -413 289 -127 724 -57
1071 175 214 143 403 381 507 637 22 52 41 95 44 95 3 0 21 -44 40 -98 19 -53
58 -144 87 -202 165 -338 480 -576 858 -651 89 -18 359 -18 440 -1 346 74 588
273 757 620 33 67 61 122 63 122 2 0 335 -178 740 -395 406 -217 739 -395 741
-395 2 0 64 75 138 167 328 412 401 525 431 669 42 198 -14 386 -154 515 -58
54 -106 82 -381 221 -760 386 -1055 545 -1117 606 -144 140 -124 336 52 500
134 125 283 180 515 189 268 10 520 -66 774 -234 263 -174 469 -475 557 -813
11 -41 12 -43 19 -20 57 188 78 247 111 317 125 263 351 491 613 618 326 159
672 175 944 45 106 -51 161 -88 246 -169 121 -116 213 -272 250 -423 41 -167
38 -402 -9 -595 -61 -253 -180 -479 -410 -778 -148 -192 -483 -606 -492 -606
-4 -1 -162 81 -350 182 l-343 183 0 587 0 588 -127 70 -128 70 -3 -810 c-1
-446 -1 -1173 0 -1616 l3 -806 133 156 132 156 0 755 c0 416 2 756 5 756 2 0
185 -97 405 -215 221 -119 424 -227 452 -241 l51 -26 26 33 c14 19 129 159
254 312 368 450 451 566 562 792 114 232 167 425 184 675 11 170 38 276 106
418 84 176 199 313 355 424 211 150 411 212 680 212 308 -1 514 -78 701 -263
189 -188 284 -397 309 -681 10 -121 14 -350 5 -350 -17 0 -450 231 -783 416
-112 63 -206 114 -209 114 -16 0 -852 -758 -922 -837 -135 -151 -202 -390
-167 -592 55 -314 279 -540 634 -639 90 -25 112 -27 287 -27 144 0 213 4 284
18 356 69 650 252 865 538 40 53 83 114 96 137 13 23 27 42 31 42 3 0 12 -28
19 -62 45 -233 202 -443 421 -567 46 -25 66 -31 115 -30 l59 0 -34 27 c-215
172 -301 302 -346 527 -43 212 -47 278 -55 835 -7 506 -9 552 -29 645 -30 135
-64 232 -122 345 -163 318 -448 521 -849 607 -119 25 -391 25 -510 -1 -476
-102 -777 -360 -930 -798 l-24 -68 -37 113 c-41 127 -62 171 -127 272 -167
262 -432 433 -740 480 -132 21 -392 20 -507 0 -269 -48 -541 -192 -745 -395
-150 -150 -261 -343 -315 -545 -15 -55 -28 -101 -29 -103 -2 -1 -13 37 -25 85
-25 100 -111 283 -168 359 -192 254 -442 430 -764 537 -367 123 -681 112 -979
-35 -92 -45 -116 -63 -195 -142 -136 -137 -190 -263 -166 -392 22 -118 99
-210 254 -302 45 -27 352 -186 682 -352 573 -291 602 -306 660 -365 72 -72
109 -141 131 -245 26 -124 0 -266 -68 -380 -34 -56 -410 -538 -432 -554 -10
-7 -529 263 -1301 677 -66 35 -121 63 -123 62 -2 -2 -11 -43 -21 -91 -70 -336
-309 -634 -581 -724 -141 -47 -330 -35 -498 30 -286 111 -540 395 -650 725
-50 149 -103 465 -79 465 5 0 111 -54 236 -119 124 -66 269 -141 322 -167 l96
-47 109 83 c521 402 813 677 936 885 80 134 113 250 112 390 -1 153 -52 284
-161 420 -212 262 -561 329 -993 188 -196 -63 -348 -159 -510 -322 -150 -150
-252 -309 -360 -556 l-22 -50 -37 105 c-128 358 -351 627 -638 770 -204 101
-496 149 -698 116z m2770 -90 c172 -46 313 -189 360 -366 19 -71 19 -200 0
-275 -42 -166 -193 -370 -442 -598 -85 -78 -542 -454 -610 -502 -10 -7 -75 21
-249 110 l-234 120 0 131 c0 152 19 274 65 429 52 171 87 246 180 381 239 350
412 501 655 570 60 16 213 17 275 0z m7453 -1307 c207 -111 378 -203 380 -204
8 -6 -20 -246 -38 -326 -42 -195 -141 -429 -242 -576 -67 -98 -210 -243 -313
-319 -211 -156 -467 -223 -685 -180 -299 58 -519 305 -520 582 0 97 18 173 67
274 44 93 49 99 262 309 237 236 678 640 699 641 7 0 183 -91 390 -201z
m-9301 69 l235 -123 -6 -140 c-12 -306 -88 -588 -217 -802 -174 -292 -402
-479 -665 -548 -73 -19 -222 -19 -293 0 -259 69 -410 327 -359 615 29 162 102
285 254 430 119 113 798 690 812 690 3 0 110 -55 239 -122z"/>
</g>
</svg>
