<?xml version="1.0" standalone="no"?>
<!DOCTYPE svg PUBLIC "-//W3C//DTD SVG 20010904//EN"
 "http://www.w3.org/TR/2001/REC-SVG-20010904/DTD/svg10.dtd">
<svg version="1.0" xmlns="http://www.w3.org/2000/svg"
 width="303.000000pt" height="167.000000pt" viewBox="0 0 303.000000 167.000000"
 preserveAspectRatio="xMidYMid meet">

<g transform="translate(0.000000,167.000000) scale(0.100000,-0.100000)"
fill="#000000" stroke="none">
<path d="M0 1490 l0 -180 180 0 180 0 0 180 0 180 -180 0 -180 0 0 -180z m320
0 l0 -150 -145 0 -145 0 0 150 0 150 145 0 145 0 0 -150z"/>
<path d="M520 835 l0 -835 395 0 395 0 0 835 0 835 -180 0 -180 0 0 -655 0
-655 -30 0 -30 0 0 655 0 655 -185 0 -185 0 0 -835z m330 145 l0 -650 70 0 70
0 0 650 0 650 145 0 145 0 0 -800 0 -800 -360 0 -360 0 0 800 0 800 145 0 145
0 0 -650z"/>
<path d="M1380 835 l0 -835 180 0 180 0 0 835 0 835 -180 0 -180 0 0 -835z
m320 -5 l0 -800 -145 0 -145 0 0 800 0 800 145 0 145 0 0 -800z"/>
<path d="M1800 835 l0 -835 185 0 185 0 0 655 0 655 35 0 35 0 0 -655 0 -655
395 0 395 0 0 835 0 835 -185 0 -185 0 0 -655 0 -655 -30 0 -30 0 0 655 0 655
-400 0 -400 0 0 -835z m760 145 l0 -650 70 0 70 0 0 650 0 650 145 0 145 0 0
-800 0 -800 -360 0 -360 0 0 655 0 655 -70 0 -70 0 0 -655 0 -655 -145 0 -145
0 0 800 0 800 360 0 360 0 0 -650z"/>
<path d="M0 595 l0 -595 180 0 180 0 0 595 0 595 -180 0 -180 0 0 -595z m320
-5 l0 -560 -145 0 -145 0 0 560 0 560 145 0 145 0 0 -560z"/>
</g>
</svg>
