<?xml version="1.0" standalone="no"?>
<!DOCTYPE svg PUBLIC "-//W3C//DTD SVG 20010904//EN"
 "http://www.w3.org/TR/2001/REC-SVG-20010904/DTD/svg10.dtd">
<svg version="1.0" xmlns="http://www.w3.org/2000/svg"
 width="805.000000pt" height="1024.000000pt" viewBox="0 0 805.000000 1024.000000"
 preserveAspectRatio="xMidYMid meet">

<g transform="translate(0.000000,1024.000000) scale(0.100000,-0.100000)"
fill="#000000" stroke="none">
<path d="M1702 9286 c-109 -41 -176 -96 -244 -200 -53 -82 -60 -119 -56 -275
3 -129 5 -139 33 -191 43 -77 134 -171 202 -208 32 -17 92 -40 132 -51 41 -12
78 -24 83 -29 23 -23 -155 -221 -278 -308 -118 -85 -330 -169 -503 -200 -150
-27 -146 -25 -146 -64 l0 -35 70 -8 c197 -21 365 -119 463 -269 92 -141 96
-225 88 -1690 l-6 -1136 -30 -68 c-87 -193 -232 -312 -427 -350 -43 -8 -93
-18 -112 -22 -34 -7 -62 -35 -48 -49 18 -17 172 -22 688 -22 548 -1 819 -8
819 -21 0 -4 -32 -47 -71 -96 -222 -276 -398 -640 -454 -939 -25 -132 -16
-601 13 -725 78 -329 236 -604 483 -846 270 -263 596 -434 984 -514 184 -38
527 -52 731 -29 106 11 317 61 469 109 347 111 653 297 919 558 306 300 481
598 586 995 33 126 45 206 33 224 -12 18 -569 170 -580 159 -3 -2 6 -64 18
-138 33 -190 33 -465 1 -626 -62 -309 -185 -541 -390 -732 -142 -133 -323
-239 -488 -285 -75 -21 -467 -32 -600 -17 -168 19 -456 140 -664 278 -176 117
-220 168 -220 254 0 68 2 70 1100 1475 189 242 466 595 615 785 149 190 342
437 430 550 88 113 416 534 730 935 947 1212 966 1236 1014 1371 64 176 64
362 1 534 -39 108 -90 189 -174 278 -111 116 -216 181 -373 228 -73 22 -108
27 -208 28 -169 0 -296 -35 -427 -121 -121 -79 -216 -191 -883 -1047 -419
-538 -473 -603 -496 -594 -19 7 -105 161 -284 507 -146 282 -369 740 -406 834
-24 61 -16 100 36 162 43 53 67 61 225 70 149 8 150 9 150 51 l0 34 -1232 1
c-678 1 -1325 5 -1437 8 l-204 6 119 54 c271 122 427 224 564 368 145 151 228
286 265 428 22 86 20 237 -5 317 -64 209 -237 329 -470 327 -63 0 -101 -6
-148 -23z m1193 -1605 c110 -49 160 -123 399 -589 609 -1187 1136 -2225 1136
-2239 0 -12 -60 -17 -380 -32 -118 -6 -255 -17 -305 -26 -362 -62 -795 -264
-1077 -503 l-95 -80 -61 33 c-114 61 -227 182 -289 310 l-33 69 0 1318 0 1317
27 63 c77 181 230 330 384 373 80 22 229 15 294 -14z m3320 -335 c44 -15 106
-44 139 -63 128 -78 265 -237 317 -370 21 -53 23 -74 24 -243 l0 -185 -32 -69
c-61 -128 -139 -232 -794 -1066 -218 -278 -412 -520 -432 -537 -40 -35 -88
-48 -147 -40 -83 11 -102 38 -289 394 -123 236 -280 563 -305 636 -19 56 -21
191 -5 269 6 29 22 76 35 103 38 81 481 660 721 943 111 130 221 203 367 243
108 29 292 22 401 -15z m-2255 -2780 c169 -29 474 -157 645 -271 102 -67 192
-162 201 -210 15 -80 -5 -108 -501 -740 -160 -203 -453 -579 -652 -835 -403
-519 -456 -583 -515 -622 -115 -77 -237 17 -408 315 -171 299 -265 587 -292
898 -29 338 62 711 237 974 56 85 226 258 308 314 96 65 310 156 442 186 76
18 412 13 535 -9z"/>
</g>
</svg>
